Coordinates
version=1
nRows=12
nColumns=34
inDegrees=yes

Units are S.I. units (second, meters, Newtons, ...)
If the header above contains a line with 'inDegrees', this indicates whether rotational values are in degrees (yes) or radians (no).

endheader
time	pelvis_tilt	pelvis_list	pelvis_rotation	pelvis_tx	pelvis_ty	pelvis_tz	hip_flexion_r	hip_adduction_r	hip_rotation_r	knee_angle_r	ankle_angle_r	subtalar_angle_r	mtp_angle_r	hip_flexion_l	hip_adduction_l	hip_rotation_l	knee_angle_l	ankle_angle_l	subtalar_angle_l	mtp_angle_l	lumbar_extension	lumbar_bending	lumbar_rotation	arm_flex_r	arm_add_r	arm_rot_r	elbow_flex_r	pro_sup_r	arm_flex_l	arm_add_l	arm_rot_l	elbow_flex_l	pro_sup_l
      1.60000000	      0.80006189	     -2.21646021	     -0.86084310	     -0.20899589	      0.89742115	     -0.24776286	    -22.04898218	      6.41283726	     -1.46314328	     -7.02078491	     11.04117943	      7.23133766	      7.53601111	     26.64264252	     -0.55159216	     -6.66672683	     -6.48073288	      2.66967640	      6.26205559	     14.84841463	     -7.41699771	      4.12299851	      6.14444926	      6.47187498	    -23.45612101	     14.80190765	     38.93236628	     90.00000000	     -6.61582743	    -13.00263458	     24.49983924	      9.79473637	     90.00000000
      1.61000000	      0.76804330	     -2.06224137	     -0.99093367	     -0.19376433	      0.89605398	     -0.24809669	    -22.36647514	      6.06280269	     -1.52786321	     -8.15195940	     10.48890252	      7.44277103	      7.64819940	     26.92574533	     -0.26997968	     -6.43465773	     -8.16425337	      2.75505235	      6.20979953	     14.84020413	     -7.31173276	      3.84147483	      6.26458122	      6.18932871	    -23.48252330	     14.59441539	     39.28238820	     90.00000000	     -6.97904737	    -13.09515090	     24.25460270	      9.87710231	     90.00000000
      1.62000000	      0.59445922	     -1.77936560	     -1.07320442	     -0.17781153	      0.89436984	     -0.24887403	    -22.40648251	      5.51054963	     -2.09879857	     -9.55560811	      9.96674141	      8.77196910	      9.06416039	     27.22801263	      0.23396885	     -6.01234161	    -10.04213551	      3.01349185	      5.61928101	     14.49408788	     -6.89455246	      3.48470013	      6.38899228	      5.49674004	    -23.47413936	     13.73500381	     39.97183653	     90.00000000	     -7.15735213	    -12.98669316	     24.51312949	      9.10767460	     90.00000000
      1.63000000	      0.54701374	     -1.45480833	     -1.32673489	     -0.16146746	      0.89304888	     -0.24920207	    -22.59836811	      4.90259141	     -2.14374438	    -10.89862225	      9.01261743	      9.09586647	      9.57752653	     27.09495969	      0.70753029	     -5.69349953	    -11.66400238	      3.24976451	      4.83353879	     14.36573384	     -6.58895248	      3.08603051	      6.73642771	      4.78255606	    -23.47499999	     13.09979992	     40.37990524	     90.00000000	     -8.15672911	    -13.22302185	     23.89059583	     10.36082112	     90.00000000
      1.64000000	      0.49105204	     -1.00736188	     -1.41574147	     -0.14503401	      0.89169220	     -0.24961814	    -22.64010913	      4.23062550	     -2.48632103	    -12.48584253	      8.06389269	      9.45486192	     10.08557370	     26.82934603	      1.33820527	     -5.38325986	    -12.80300237	      0.36588174	      4.35542478	     13.65929226	     -6.28248414	      2.39778434	      6.60309620	      4.28831129	    -23.28002246	     12.70802843	     40.65887599	     90.00000000	     -8.01586536	    -13.22168700	     23.74579619	      9.29321594	     90.00000000
      1.65000000	      0.48854660	     -0.23927686	     -1.43174592	     -0.12866331	      0.89089117	     -0.25034078	    -22.57824453	      3.21980178	     -3.05359309	    -14.18605672	      5.51833816	      9.71436013	     18.67109100	     26.24680304	      2.37280302	     -4.85859012	    -12.80794175	     -2.96762751	      1.73508420	      8.51060190	     -6.00192421	      1.46136761	      6.65962378	      3.42042525	    -22.93862748	     11.36241707	     41.00357672	     90.00000000	     -7.99874832	    -13.29118338	     25.35295795	      8.57662785	     90.00000000
      1.66000000	      0.31997795	      0.25153955	     -1.50298521	     -0.11257812	      0.89020153	     -0.25067266	    -22.20784705	      2.54485837	     -2.93869376	    -16.08634391	      3.76401260	      9.54945451	     18.60859868	     26.33797806	      2.92455160	     -4.52921734	    -14.10034124	     -3.34497251	      0.80033991	      8.60495560	     -5.58155198	      0.79187288	      6.51269621	      2.93074322	    -22.65262534	     11.06673160	     40.98380254	     90.00000000	     -8.36910375	    -13.46065542	     25.05930119	      8.75874124	     90.00000000
      1.67000000	     -0.14720540	      0.77514661	     -1.16943785	     -0.09702460	      0.88939319	     -0.25198107	    -21.23348245	      1.96754772	     -3.16471052	    -18.32244623	      1.00032777	      8.92691283	     24.84109456	     26.99475495	      3.80811685	     -2.83451360	    -16.12384518	     -4.98602256	     -2.70985039	     11.23499026	     -4.84732281	      0.16398681	      6.07367745	      2.35422557	    -22.28799430	     10.29293393	     40.65343522	     90.00000000	     -8.39439868	    -13.48184923	     25.80213359	      8.30826144	     90.00000000
      1.68000000	     -0.55138172	      1.30296506	     -0.82623299	     -0.08160242	      0.88903951	     -0.25289288	    -20.10359204	      1.40209365	     -3.32244893	    -20.87865438	     -1.47651350	      8.33094040	     25.26431206	     27.70724997	      4.57363084	     -1.87729931	    -18.49507408	     -4.96590972	     -4.51382079	     11.25817953	     -4.22349193	     -0.53856133	      5.54871241	      1.88056211	    -21.82775758	      9.71501816	     40.21737381	     90.00000000	     -8.46312119	    -13.54184001	     25.44307098	      8.09322949	     90.00000000
      1.69000000	     -0.81571804	      1.96575203	     -0.60057631	     -0.06626897	      0.88906988	     -0.25379916	    -18.80969142	      0.60713846	     -3.59376402	    -23.75094603	     -5.80170996	      7.14203586	     33.08490238	     27.95366388	      5.46028214	     -1.15052989	    -20.04967821	     -5.95874131	     -6.30373530	     12.29615516	     -3.81812762	     -1.35536061	      5.20354669	      1.24735925	    -21.42595454	      9.02539778	     40.06106201	     90.00000000	     -8.41349982	    -13.68091908	     26.24991282	      7.99206542	     90.00000000
      1.70000000	     -0.83747539	      2.72188509	     -0.45903966	     -0.05084115	      0.88949786	     -0.25448317	    -17.56722104	     -0.40809228	     -4.00791767	    -26.96253350	     -9.18529097	      6.73420874	     33.12003624	     27.80789286	      6.37921447	     -0.70989865	    -21.38958177	     -6.59441446	     -6.85176402	     12.19853495	     -3.68475246	     -2.29996095	      4.95272307	      0.61627255	    -21.09661657	      8.70510024	     39.86172134	     90.00000000	     -8.38381084	    -13.92953906	     26.01077367	      8.34836685	     90.00000000
      1.71000000	     -0.86565611	      3.47157350	     -0.36335700	     -0.03594685	      0.89006369	     -0.25517167	    -16.04121679	     -1.45023386	     -4.26762019	    -30.48341654	    -12.21564167	      6.45223549	     33.29280853	     27.58627055	      7.36486621	     -0.23228798	    -22.64822634	     -6.02941241	     -7.23729521	     12.20817483	     -3.63355852	     -3.21499025	      4.78277273	      0.01355796	    -20.72683821	      8.27869917	     39.60937615	     90.00000000	     -8.14261359	    -14.07381120	     25.70156264	      8.51721237	     90.00000000
